<mxfile host="Electron" modified="2024-02-26T08:22:36.332Z" agent="Mozilla/5.0 (Macintosh; Intel Mac OS X 10_15_7) AppleWebKit/537.36 (KHTML, like Gecko) draw.io/23.1.5 Chrome/120.0.6099.109 Electron/28.1.0 Safari/537.36" etag="1vZ_Ya4zQcd2XSBL6Z3_" version="23.1.5" type="device" pages="2">
  <diagram id="Ao4ffBRijvySt7VsWCoj" name="V1.1 - UseCase">
    <mxGraphModel dx="1466" dy="967" grid="1" gridSize="10" guides="1" tooltips="1" connect="1" arrows="1" fold="1" page="1" pageScale="1" pageWidth="827" pageHeight="1169" math="0" shadow="0">
      <root>
        <mxCell id="0" />
        <mxCell id="1" parent="0" />
        <mxCell id="eh9DnTYIY3xIaO5AOnn--1" value="User&lt;br&gt;" style="shape=umlActor;verticalLabelPosition=bottom;verticalAlign=top;html=1;outlineConnect=0;" vertex="1" parent="1">
          <mxGeometry x="10" y="1170" width="30" height="60" as="geometry" />
        </mxCell>
        <mxCell id="eh9DnTYIY3xIaO5AOnn--2" value="Choisir son type de sauvegarde" style="ellipse;whiteSpace=wrap;html=1;" vertex="1" parent="1">
          <mxGeometry x="1010" y="1250" width="120" height="80" as="geometry" />
        </mxCell>
        <mxCell id="eh9DnTYIY3xIaO5AOnn--3" value="Choisir Nom" style="ellipse;whiteSpace=wrap;html=1;" vertex="1" parent="1">
          <mxGeometry x="580" y="1250" width="120" height="80" as="geometry" />
        </mxCell>
        <mxCell id="eh9DnTYIY3xIaO5AOnn--4" value="Choisir Source" style="ellipse;whiteSpace=wrap;html=1;" vertex="1" parent="1">
          <mxGeometry x="720" y="1250" width="120" height="80" as="geometry" />
        </mxCell>
        <mxCell id="eh9DnTYIY3xIaO5AOnn--5" value="Choisir Destination" style="ellipse;whiteSpace=wrap;html=1;" vertex="1" parent="1">
          <mxGeometry x="860" y="1250" width="120" height="80" as="geometry" />
        </mxCell>
        <mxCell id="eh9DnTYIY3xIaO5AOnn--6" value="Lancer le programme" style="ellipse;whiteSpace=wrap;html=1;" vertex="1" parent="1">
          <mxGeometry x="100" y="1160" width="120" height="80" as="geometry" />
        </mxCell>
        <mxCell id="eh9DnTYIY3xIaO5AOnn--7" value="Use Case UML V1.1 : L&#39;utilisateur effectue une ou plusieurs sauvegarde de fichier/dossier" style="rounded=0;whiteSpace=wrap;html=1;" vertex="1" parent="1">
          <mxGeometry x="460" y="860" width="340" height="90" as="geometry" />
        </mxCell>
        <mxCell id="eh9DnTYIY3xIaO5AOnn--8" value="En option (Revenir à l&#39;étape d&#39;avant)" style="ellipse;whiteSpace=wrap;html=1;" vertex="1" parent="1">
          <mxGeometry x="1060" y="1630" width="120" height="80" as="geometry" />
        </mxCell>
        <mxCell id="eh9DnTYIY3xIaO5AOnn--9" value="Créer Sauvegarde" style="ellipse;whiteSpace=wrap;html=1;" vertex="1" parent="1">
          <mxGeometry x="430" y="1250" width="120" height="80" as="geometry" />
        </mxCell>
        <mxCell id="eh9DnTYIY3xIaO5AOnn--10" value="Lancer Sauvegarde" style="ellipse;whiteSpace=wrap;html=1;" vertex="1" parent="1">
          <mxGeometry x="430" y="1050" width="120" height="80" as="geometry" />
        </mxCell>
        <mxCell id="eh9DnTYIY3xIaO5AOnn--11" value="Choisir Sauvegarde&lt;br&gt;(1-3, 1; 3)" style="ellipse;whiteSpace=wrap;html=1;" vertex="1" parent="1">
          <mxGeometry x="600" y="1050" width="120" height="80" as="geometry" />
        </mxCell>
        <mxCell id="eh9DnTYIY3xIaO5AOnn--12" value="" style="endArrow=none;html=1;rounded=0;exitX=0.5;exitY=0.5;exitDx=0;exitDy=0;exitPerimeter=0;" edge="1" parent="1" source="eh9DnTYIY3xIaO5AOnn--1" target="eh9DnTYIY3xIaO5AOnn--6">
          <mxGeometry width="50" height="50" relative="1" as="geometry">
            <mxPoint x="40" y="1370" as="sourcePoint" />
            <mxPoint x="90" y="1320" as="targetPoint" />
          </mxGeometry>
        </mxCell>
        <mxCell id="eh9DnTYIY3xIaO5AOnn--13" value="" style="endArrow=none;html=1;rounded=0;" edge="1" parent="1" source="eh9DnTYIY3xIaO5AOnn--6" target="eh9DnTYIY3xIaO5AOnn--20">
          <mxGeometry width="50" height="50" relative="1" as="geometry">
            <mxPoint x="210" y="1290" as="sourcePoint" />
            <mxPoint x="270" y="1200" as="targetPoint" />
          </mxGeometry>
        </mxCell>
        <mxCell id="eh9DnTYIY3xIaO5AOnn--14" value="" style="endArrow=none;html=1;rounded=0;" edge="1" parent="1" source="eh9DnTYIY3xIaO5AOnn--10" target="eh9DnTYIY3xIaO5AOnn--11">
          <mxGeometry width="50" height="50" relative="1" as="geometry">
            <mxPoint x="55" y="1230" as="sourcePoint" />
            <mxPoint x="130" y="1230" as="targetPoint" />
          </mxGeometry>
        </mxCell>
        <mxCell id="eh9DnTYIY3xIaO5AOnn--15" value="" style="endArrow=none;html=1;rounded=0;" edge="1" parent="1" source="eh9DnTYIY3xIaO5AOnn--9" target="eh9DnTYIY3xIaO5AOnn--3">
          <mxGeometry width="50" height="50" relative="1" as="geometry">
            <mxPoint x="85" y="1260" as="sourcePoint" />
            <mxPoint x="160" y="1260" as="targetPoint" />
          </mxGeometry>
        </mxCell>
        <mxCell id="eh9DnTYIY3xIaO5AOnn--16" value="" style="endArrow=none;html=1;rounded=0;" edge="1" parent="1" source="eh9DnTYIY3xIaO5AOnn--3">
          <mxGeometry width="50" height="50" relative="1" as="geometry">
            <mxPoint x="730" y="1380" as="sourcePoint" />
            <mxPoint x="720" y="1290" as="targetPoint" />
          </mxGeometry>
        </mxCell>
        <mxCell id="eh9DnTYIY3xIaO5AOnn--17" value="" style="endArrow=none;html=1;rounded=0;" edge="1" parent="1" source="eh9DnTYIY3xIaO5AOnn--5" target="eh9DnTYIY3xIaO5AOnn--2">
          <mxGeometry width="50" height="50" relative="1" as="geometry">
            <mxPoint x="920" y="1290" as="sourcePoint" />
            <mxPoint x="180" y="1280" as="targetPoint" />
          </mxGeometry>
        </mxCell>
        <mxCell id="eh9DnTYIY3xIaO5AOnn--18" value="" style="endArrow=none;html=1;rounded=0;" edge="1" parent="1" source="eh9DnTYIY3xIaO5AOnn--4" target="eh9DnTYIY3xIaO5AOnn--5">
          <mxGeometry width="50" height="50" relative="1" as="geometry">
            <mxPoint x="115" y="1290" as="sourcePoint" />
            <mxPoint x="190" y="1290" as="targetPoint" />
          </mxGeometry>
        </mxCell>
        <mxCell id="eh9DnTYIY3xIaO5AOnn--19" value="" style="endArrow=classic;html=1;rounded=0;" edge="1" parent="1" source="eh9DnTYIY3xIaO5AOnn--2" target="eh9DnTYIY3xIaO5AOnn--20">
          <mxGeometry width="50" height="50" relative="1" as="geometry">
            <mxPoint x="1220" y="1250" as="sourcePoint" />
            <mxPoint x="490" y="1190" as="targetPoint" />
            <Array as="points">
              <mxPoint x="940" y="1220" />
            </Array>
          </mxGeometry>
        </mxCell>
        <mxCell id="eh9DnTYIY3xIaO5AOnn--20" value="Choisir option" style="ellipse;whiteSpace=wrap;html=1;" vertex="1" parent="1">
          <mxGeometry x="280" y="1160" width="120" height="80" as="geometry" />
        </mxCell>
        <mxCell id="eh9DnTYIY3xIaO5AOnn--21" value="" style="endArrow=none;html=1;rounded=0;" edge="1" parent="1" source="eh9DnTYIY3xIaO5AOnn--20" target="eh9DnTYIY3xIaO5AOnn--10">
          <mxGeometry width="50" height="50" relative="1" as="geometry">
            <mxPoint x="35" y="1210" as="sourcePoint" />
            <mxPoint x="110" y="1210" as="targetPoint" />
          </mxGeometry>
        </mxCell>
        <mxCell id="eh9DnTYIY3xIaO5AOnn--22" value="" style="endArrow=none;html=1;rounded=0;" edge="1" parent="1" source="eh9DnTYIY3xIaO5AOnn--9" target="eh9DnTYIY3xIaO5AOnn--20">
          <mxGeometry width="50" height="50" relative="1" as="geometry">
            <mxPoint x="45" y="1220" as="sourcePoint" />
            <mxPoint x="120" y="1220" as="targetPoint" />
          </mxGeometry>
        </mxCell>
        <mxCell id="eh9DnTYIY3xIaO5AOnn--23" value="" style="endArrow=classic;html=1;rounded=0;entryX=1.015;entryY=0.39;entryDx=0;entryDy=0;entryPerimeter=0;" edge="1" parent="1" source="eh9DnTYIY3xIaO5AOnn--11" target="eh9DnTYIY3xIaO5AOnn--20">
          <mxGeometry width="50" height="50" relative="1" as="geometry">
            <mxPoint x="840" y="1130" as="sourcePoint" />
            <mxPoint x="650" y="1060" as="targetPoint" />
            <Array as="points">
              <mxPoint x="580" y="1160" />
            </Array>
          </mxGeometry>
        </mxCell>
        <mxCell id="eh9DnTYIY3xIaO5AOnn--24" value="Paramètres" style="ellipse;whiteSpace=wrap;html=1;" vertex="1" parent="1">
          <mxGeometry x="114" y="1577.5" width="120" height="80" as="geometry" />
        </mxCell>
        <mxCell id="eh9DnTYIY3xIaO5AOnn--25" value="" style="endArrow=none;html=1;rounded=0;" edge="1" parent="1" source="eh9DnTYIY3xIaO5AOnn--24" target="eh9DnTYIY3xIaO5AOnn--20">
          <mxGeometry width="50" height="50" relative="1" as="geometry">
            <mxPoint x="459" y="1271" as="sourcePoint" />
            <mxPoint x="401" y="1229" as="targetPoint" />
          </mxGeometry>
        </mxCell>
        <mxCell id="eh9DnTYIY3xIaO5AOnn--26" value="Changer Langue" style="ellipse;whiteSpace=wrap;html=1;" vertex="1" parent="1">
          <mxGeometry x="294" y="1577.5" width="120" height="80" as="geometry" />
        </mxCell>
        <mxCell id="eh9DnTYIY3xIaO5AOnn--27" value="" style="endArrow=none;html=1;rounded=0;" edge="1" parent="1" source="eh9DnTYIY3xIaO5AOnn--24" target="eh9DnTYIY3xIaO5AOnn--26">
          <mxGeometry width="50" height="50" relative="1" as="geometry">
            <mxPoint x="176" y="1589.5" as="sourcePoint" />
            <mxPoint x="122" y="1475.5" as="targetPoint" />
          </mxGeometry>
        </mxCell>
        <mxCell id="eh9DnTYIY3xIaO5AOnn--28" value="" style="endArrow=none;html=1;rounded=0;" edge="1" parent="1" source="eh9DnTYIY3xIaO5AOnn--24" target="eh9DnTYIY3xIaO5AOnn--31">
          <mxGeometry width="50" height="50" relative="1" as="geometry">
            <mxPoint x="254" y="1627.5" as="sourcePoint" />
            <mxPoint x="308.71206370344544" y="1696.2617511932654" as="targetPoint" />
            <Array as="points">
              <mxPoint x="360" y="1720" />
            </Array>
          </mxGeometry>
        </mxCell>
        <mxCell id="eh9DnTYIY3xIaO5AOnn--29" value="Choisir format Log" style="ellipse;whiteSpace=wrap;html=1;" vertex="1" parent="1">
          <mxGeometry x="294" y="1450" width="120" height="80" as="geometry" />
        </mxCell>
        <mxCell id="eh9DnTYIY3xIaO5AOnn--30" value="" style="endArrow=none;html=1;rounded=0;" edge="1" parent="1" source="eh9DnTYIY3xIaO5AOnn--24" target="eh9DnTYIY3xIaO5AOnn--29">
          <mxGeometry width="50" height="50" relative="1" as="geometry">
            <mxPoint x="229" y="1654" as="sourcePoint" />
            <mxPoint x="319" y="1706" as="targetPoint" />
          </mxGeometry>
        </mxCell>
        <mxCell id="eh9DnTYIY3xIaO5AOnn--31" value="Retour" style="ellipse;whiteSpace=wrap;html=1;" vertex="1" parent="1">
          <mxGeometry x="470" y="1577.5" width="120" height="80" as="geometry" />
        </mxCell>
        <mxCell id="eh9DnTYIY3xIaO5AOnn--32" value="" style="endArrow=none;html=1;rounded=0;" edge="1" parent="1" source="eh9DnTYIY3xIaO5AOnn--31" target="eh9DnTYIY3xIaO5AOnn--29">
          <mxGeometry width="50" height="50" relative="1" as="geometry">
            <mxPoint x="225" y="1599" as="sourcePoint" />
            <mxPoint x="323" y="1529" as="targetPoint" />
          </mxGeometry>
        </mxCell>
        <mxCell id="eh9DnTYIY3xIaO5AOnn--33" value="" style="endArrow=none;html=1;rounded=0;" edge="1" parent="1" source="eh9DnTYIY3xIaO5AOnn--31" target="eh9DnTYIY3xIaO5AOnn--26">
          <mxGeometry width="50" height="50" relative="1" as="geometry">
            <mxPoint x="235" y="1609" as="sourcePoint" />
            <mxPoint x="333" y="1539" as="targetPoint" />
          </mxGeometry>
        </mxCell>
        <mxCell id="eh9DnTYIY3xIaO5AOnn--34" value="" style="endArrow=classic;html=1;rounded=0;" edge="1" parent="1" source="eh9DnTYIY3xIaO5AOnn--31" target="eh9DnTYIY3xIaO5AOnn--20">
          <mxGeometry width="50" height="50" relative="1" as="geometry">
            <mxPoint x="634" y="1132" as="sourcePoint" />
            <mxPoint x="412" y="1201" as="targetPoint" />
            <Array as="points">
              <mxPoint x="450" y="1360" />
            </Array>
          </mxGeometry>
        </mxCell>
      </root>
    </mxGraphModel>
  </diagram>
  <diagram id="wQaWH93i5OwRiXwxNOr4" name="V1.1 - Classe">
    <mxGraphModel dx="2879" dy="2523" grid="1" gridSize="10" guides="1" tooltips="1" connect="1" arrows="1" fold="1" page="1" pageScale="1" pageWidth="827" pageHeight="1169" math="0" shadow="0">
      <root>
        <mxCell id="0" />
        <mxCell id="1" parent="0" />
        <mxCell id="TfWbrsgbRibgP_C1F9pa-1" value="Save" style="swimlane;fontStyle=1;align=center;verticalAlign=top;childLayout=stackLayout;horizontal=1;startSize=26;horizontalStack=0;resizeParent=1;resizeParentMax=0;resizeLast=0;collapsible=1;marginBottom=0;whiteSpace=wrap;html=1;" vertex="1" parent="1">
          <mxGeometry x="405" y="76" width="180" height="246" as="geometry" />
        </mxCell>
        <mxCell id="TfWbrsgbRibgP_C1F9pa-2" value="- number : int" style="text;strokeColor=none;fillColor=none;align=left;verticalAlign=top;spacingLeft=4;spacingRight=4;overflow=hidden;rotatable=0;points=[[0,0.5],[1,0.5]];portConstraint=eastwest;whiteSpace=wrap;html=1;" vertex="1" parent="TfWbrsgbRibgP_C1F9pa-1">
          <mxGeometry y="26" width="180" height="26" as="geometry" />
        </mxCell>
        <mxCell id="TfWbrsgbRibgP_C1F9pa-3" value="- name : string" style="text;strokeColor=none;fillColor=none;align=left;verticalAlign=top;spacingLeft=4;spacingRight=4;overflow=hidden;rotatable=0;points=[[0,0.5],[1,0.5]];portConstraint=eastwest;whiteSpace=wrap;html=1;" vertex="1" parent="TfWbrsgbRibgP_C1F9pa-1">
          <mxGeometry y="52" width="180" height="26" as="geometry" />
        </mxCell>
        <mxCell id="TfWbrsgbRibgP_C1F9pa-4" value="- targetPath : string" style="text;strokeColor=none;fillColor=none;align=left;verticalAlign=top;spacingLeft=4;spacingRight=4;overflow=hidden;rotatable=0;points=[[0,0.5],[1,0.5]];portConstraint=eastwest;whiteSpace=wrap;html=1;" vertex="1" parent="TfWbrsgbRibgP_C1F9pa-1">
          <mxGeometry y="78" width="180" height="24" as="geometry" />
        </mxCell>
        <mxCell id="TfWbrsgbRibgP_C1F9pa-5" value="" style="line;strokeWidth=1;fillColor=none;align=left;verticalAlign=middle;spacingTop=-1;spacingLeft=3;spacingRight=3;rotatable=0;labelPosition=right;points=[];portConstraint=eastwest;strokeColor=inherit;" vertex="1" parent="TfWbrsgbRibgP_C1F9pa-1">
          <mxGeometry y="102" width="180" height="8" as="geometry" />
        </mxCell>
        <mxCell id="TfWbrsgbRibgP_C1F9pa-6" value="+ ExecuteSave():bool" style="text;strokeColor=none;fillColor=none;align=left;verticalAlign=top;spacingLeft=4;spacingRight=4;overflow=hidden;rotatable=0;points=[[0,0.5],[1,0.5]];portConstraint=eastwest;whiteSpace=wrap;html=1;" vertex="1" parent="TfWbrsgbRibgP_C1F9pa-1">
          <mxGeometry y="110" width="180" height="26" as="geometry" />
        </mxCell>
        <mxCell id="TfWbrsgbRibgP_C1F9pa-7" value="- CopyDirectory()" style="text;strokeColor=none;fillColor=none;align=left;verticalAlign=top;spacingLeft=4;spacingRight=4;overflow=hidden;rotatable=0;points=[[0,0.5],[1,0.5]];portConstraint=eastwest;whiteSpace=wrap;html=1;" vertex="1" parent="TfWbrsgbRibgP_C1F9pa-1">
          <mxGeometry y="136" width="180" height="26" as="geometry" />
        </mxCell>
        <mxCell id="TfWbrsgbRibgP_C1F9pa-8" value="+CalculateTransferTime&lt;span style=&quot;background-color: initial;&quot;&gt;()&lt;/span&gt;" style="text;strokeColor=none;fillColor=none;align=left;verticalAlign=top;spacingLeft=4;spacingRight=4;overflow=hidden;rotatable=0;points=[[0,0.5],[1,0.5]];portConstraint=eastwest;whiteSpace=wrap;html=1;" vertex="1" parent="TfWbrsgbRibgP_C1F9pa-1">
          <mxGeometry y="162" width="180" height="26" as="geometry" />
        </mxCell>
        <mxCell id="TfWbrsgbRibgP_C1F9pa-9" value="+CanFileBeCopied&lt;span style=&quot;background-color: initial;&quot;&gt;():boolean&lt;/span&gt;" style="text;strokeColor=none;fillColor=none;align=left;verticalAlign=top;spacingLeft=4;spacingRight=4;overflow=hidden;rotatable=0;points=[[0,0.5],[1,0.5]];portConstraint=eastwest;whiteSpace=wrap;html=1;fontStyle=2" vertex="1" parent="TfWbrsgbRibgP_C1F9pa-1">
          <mxGeometry y="188" width="180" height="28" as="geometry" />
        </mxCell>
        <mxCell id="TfWbrsgbRibgP_C1F9pa-10" value="+GetTypeName&lt;span style=&quot;background-color: initial;&quot;&gt;():string&lt;/span&gt;" style="text;strokeColor=none;fillColor=none;align=left;verticalAlign=top;spacingLeft=4;spacingRight=4;overflow=hidden;rotatable=0;points=[[0,0.5],[1,0.5]];portConstraint=eastwest;whiteSpace=wrap;html=1;fontStyle=2" vertex="1" parent="TfWbrsgbRibgP_C1F9pa-1">
          <mxGeometry y="216" width="180" height="30" as="geometry" />
        </mxCell>
        <mxCell id="TfWbrsgbRibgP_C1F9pa-11" value="SaveTotal" style="swimlane;fontStyle=1;align=center;verticalAlign=top;childLayout=stackLayout;horizontal=1;startSize=26;horizontalStack=0;resizeParent=1;resizeParentMax=0;resizeLast=0;collapsible=1;marginBottom=0;whiteSpace=wrap;html=1;" vertex="1" parent="1">
          <mxGeometry x="770" y="240" width="170" height="90" as="geometry" />
        </mxCell>
        <mxCell id="TfWbrsgbRibgP_C1F9pa-12" value="" style="line;strokeWidth=1;fillColor=none;align=left;verticalAlign=middle;spacingTop=-1;spacingLeft=3;spacingRight=3;rotatable=0;labelPosition=right;points=[];portConstraint=eastwest;strokeColor=inherit;" vertex="1" parent="TfWbrsgbRibgP_C1F9pa-11">
          <mxGeometry y="26" width="170" height="8" as="geometry" />
        </mxCell>
        <mxCell id="TfWbrsgbRibgP_C1F9pa-13" value="+CanFileBeCopied&lt;span style=&quot;background-color: initial;&quot;&gt;():boolean&lt;/span&gt;" style="text;strokeColor=none;fillColor=none;align=left;verticalAlign=top;spacingLeft=4;spacingRight=4;overflow=hidden;rotatable=0;points=[[0,0.5],[1,0.5]];portConstraint=eastwest;whiteSpace=wrap;html=1;" vertex="1" parent="TfWbrsgbRibgP_C1F9pa-11">
          <mxGeometry y="34" width="170" height="30" as="geometry" />
        </mxCell>
        <mxCell id="TfWbrsgbRibgP_C1F9pa-14" value="+ getTypeName() : string" style="text;strokeColor=none;fillColor=none;align=left;verticalAlign=top;spacingLeft=4;spacingRight=4;overflow=hidden;rotatable=0;points=[[0,0.5],[1,0.5]];portConstraint=eastwest;whiteSpace=wrap;html=1;" vertex="1" parent="TfWbrsgbRibgP_C1F9pa-11">
          <mxGeometry y="64" width="170" height="26" as="geometry" />
        </mxCell>
        <mxCell id="TfWbrsgbRibgP_C1F9pa-15" value="SaveDifferential" style="swimlane;fontStyle=1;align=center;verticalAlign=top;childLayout=stackLayout;horizontal=1;startSize=26;horizontalStack=0;resizeParent=1;resizeParentMax=0;resizeLast=0;collapsible=1;marginBottom=0;whiteSpace=wrap;html=1;" vertex="1" parent="1">
          <mxGeometry x="770" y="380" width="170" height="90" as="geometry" />
        </mxCell>
        <mxCell id="TfWbrsgbRibgP_C1F9pa-16" value="" style="line;strokeWidth=1;fillColor=none;align=left;verticalAlign=middle;spacingTop=-1;spacingLeft=3;spacingRight=3;rotatable=0;labelPosition=right;points=[];portConstraint=eastwest;strokeColor=inherit;" vertex="1" parent="TfWbrsgbRibgP_C1F9pa-15">
          <mxGeometry y="26" width="170" height="8" as="geometry" />
        </mxCell>
        <mxCell id="TfWbrsgbRibgP_C1F9pa-17" value="+CanFileBeCopied&lt;span style=&quot;background-color: initial;&quot;&gt;():boolean&lt;/span&gt;" style="text;strokeColor=none;fillColor=none;align=left;verticalAlign=top;spacingLeft=4;spacingRight=4;overflow=hidden;rotatable=0;points=[[0,0.5],[1,0.5]];portConstraint=eastwest;whiteSpace=wrap;html=1;" vertex="1" parent="TfWbrsgbRibgP_C1F9pa-15">
          <mxGeometry y="34" width="170" height="30" as="geometry" />
        </mxCell>
        <mxCell id="TfWbrsgbRibgP_C1F9pa-18" value="+ getTypeName() : string" style="text;strokeColor=none;fillColor=none;align=left;verticalAlign=top;spacingLeft=4;spacingRight=4;overflow=hidden;rotatable=0;points=[[0,0.5],[1,0.5]];portConstraint=eastwest;whiteSpace=wrap;html=1;" vertex="1" parent="TfWbrsgbRibgP_C1F9pa-15">
          <mxGeometry y="64" width="170" height="26" as="geometry" />
        </mxCell>
        <mxCell id="TfWbrsgbRibgP_C1F9pa-19" value="- name : string" style="text;strokeColor=none;fillColor=none;align=left;verticalAlign=top;spacingLeft=4;spacingRight=4;overflow=hidden;rotatable=0;points=[[0,0.5],[1,0.5]];portConstraint=eastwest;whiteSpace=wrap;html=1;" vertex="1" parent="1">
          <mxGeometry x="270" y="612" width="160" height="26" as="geometry" />
        </mxCell>
        <mxCell id="TfWbrsgbRibgP_C1F9pa-20" value="- size : double" style="text;strokeColor=none;fillColor=none;align=left;verticalAlign=top;spacingLeft=4;spacingRight=4;overflow=hidden;rotatable=0;points=[[0,0.5],[1,0.5]];portConstraint=eastwest;whiteSpace=wrap;html=1;" vertex="1" parent="1">
          <mxGeometry x="270" y="638" width="160" height="24" as="geometry" />
        </mxCell>
        <mxCell id="TfWbrsgbRibgP_C1F9pa-21" value="App (View)" style="swimlane;fontStyle=1;align=center;verticalAlign=top;childLayout=stackLayout;horizontal=1;startSize=26;horizontalStack=0;resizeParent=1;resizeParentMax=0;resizeLast=0;collapsible=1;marginBottom=0;whiteSpace=wrap;html=1;" vertex="1" parent="1">
          <mxGeometry x="750" y="-160" width="160" height="60" as="geometry" />
        </mxCell>
        <mxCell id="TfWbrsgbRibgP_C1F9pa-22" value="" style="line;strokeWidth=1;fillColor=none;align=left;verticalAlign=middle;spacingTop=-1;spacingLeft=3;spacingRight=3;rotatable=0;labelPosition=right;points=[];portConstraint=eastwest;strokeColor=inherit;" vertex="1" parent="TfWbrsgbRibgP_C1F9pa-21">
          <mxGeometry y="26" width="160" height="8" as="geometry" />
        </mxCell>
        <mxCell id="TfWbrsgbRibgP_C1F9pa-23" value="+ Main()" style="text;strokeColor=none;fillColor=none;align=left;verticalAlign=top;spacingLeft=4;spacingRight=4;overflow=hidden;rotatable=0;points=[[0,0.5],[1,0.5]];portConstraint=eastwest;whiteSpace=wrap;html=1;" vertex="1" parent="TfWbrsgbRibgP_C1F9pa-21">
          <mxGeometry y="34" width="160" height="26" as="geometry" />
        </mxCell>
        <mxCell id="TfWbrsgbRibgP_C1F9pa-24" value="ModelView" style="swimlane;fontStyle=1;align=center;verticalAlign=top;childLayout=stackLayout;horizontal=1;startSize=26;horizontalStack=0;resizeParent=1;resizeParentMax=0;resizeLast=0;collapsible=1;marginBottom=0;whiteSpace=wrap;html=1;" vertex="1" parent="1">
          <mxGeometry x="320" y="-288" width="350" height="86" as="geometry" />
        </mxCell>
        <mxCell id="TfWbrsgbRibgP_C1F9pa-25" value="" style="line;strokeWidth=1;fillColor=none;align=left;verticalAlign=middle;spacingTop=-1;spacingLeft=3;spacingRight=3;rotatable=0;labelPosition=right;points=[];portConstraint=eastwest;strokeColor=inherit;" vertex="1" parent="TfWbrsgbRibgP_C1F9pa-24">
          <mxGeometry y="26" width="350" height="8" as="geometry" />
        </mxCell>
        <mxCell id="TfWbrsgbRibgP_C1F9pa-26" value="+ CreateSave(name, targetPath, sourceRepo, typeSave)" style="text;strokeColor=none;fillColor=none;align=left;verticalAlign=top;spacingLeft=4;spacingRight=4;overflow=hidden;rotatable=0;points=[[0,0.5],[1,0.5]];portConstraint=eastwest;whiteSpace=wrap;html=1;" vertex="1" parent="TfWbrsgbRibgP_C1F9pa-24">
          <mxGeometry y="34" width="350" height="26" as="geometry" />
        </mxCell>
        <mxCell id="TfWbrsgbRibgP_C1F9pa-27" value="+ runSavesFromNumbers(string)" style="text;strokeColor=none;fillColor=none;align=left;verticalAlign=top;spacingLeft=4;spacingRight=4;overflow=hidden;rotatable=0;points=[[0,0.5],[1,0.5]];portConstraint=eastwest;whiteSpace=wrap;html=1;" vertex="1" parent="TfWbrsgbRibgP_C1F9pa-24">
          <mxGeometry y="60" width="350" height="26" as="geometry" />
        </mxCell>
        <mxCell id="TfWbrsgbRibgP_C1F9pa-28" value="Folder" style="swimlane;fontStyle=1;align=center;verticalAlign=top;childLayout=stackLayout;horizontal=1;startSize=26;horizontalStack=0;resizeParent=1;resizeParentMax=0;resizeLast=0;collapsible=1;marginBottom=0;whiteSpace=wrap;html=1;" vertex="1" parent="1">
          <mxGeometry x="465" y="446" width="180" height="124" as="geometry" />
        </mxCell>
        <mxCell id="TfWbrsgbRibgP_C1F9pa-29" value="+ name : string" style="text;strokeColor=none;fillColor=none;align=left;verticalAlign=top;spacingLeft=4;spacingRight=4;overflow=hidden;rotatable=0;points=[[0,0.5],[1,0.5]];portConstraint=eastwest;whiteSpace=wrap;html=1;" vertex="1" parent="TfWbrsgbRibgP_C1F9pa-28">
          <mxGeometry y="26" width="180" height="26" as="geometry" />
        </mxCell>
        <mxCell id="TfWbrsgbRibgP_C1F9pa-30" value="" style="line;strokeWidth=1;fillColor=none;align=left;verticalAlign=middle;spacingTop=-1;spacingLeft=3;spacingRight=3;rotatable=0;labelPosition=right;points=[];portConstraint=eastwest;strokeColor=inherit;" vertex="1" parent="TfWbrsgbRibgP_C1F9pa-28">
          <mxGeometry y="52" width="180" height="8" as="geometry" />
        </mxCell>
        <mxCell id="TfWbrsgbRibgP_C1F9pa-31" value="" style="endArrow=none;html=1;rounded=0;exitX=1.012;exitY=0.128;exitDx=0;exitDy=0;entryX=1;entryY=0.5;entryDx=0;entryDy=0;startArrow=open;startFill=0;exitPerimeter=0;" edge="1" parent="TfWbrsgbRibgP_C1F9pa-28" source="TfWbrsgbRibgP_C1F9pa-28" target="TfWbrsgbRibgP_C1F9pa-29">
          <mxGeometry width="50" height="50" relative="1" as="geometry">
            <mxPoint x="210" y="6" as="sourcePoint" />
            <mxPoint x="180" y="46" as="targetPoint" />
            <Array as="points">
              <mxPoint x="210" y="15" />
              <mxPoint x="210" y="39" />
              <mxPoint x="190" y="39" />
            </Array>
          </mxGeometry>
        </mxCell>
        <mxCell id="TfWbrsgbRibgP_C1F9pa-32" value="+GetTotalFileSize&lt;span style=&quot;background-color: initial;&quot;&gt;(string):long&lt;/span&gt;" style="text;strokeColor=none;fillColor=none;align=left;verticalAlign=top;spacingLeft=4;spacingRight=4;overflow=hidden;rotatable=0;points=[[0,0.5],[1,0.5]];portConstraint=eastwest;whiteSpace=wrap;html=1;" vertex="1" parent="TfWbrsgbRibgP_C1F9pa-28">
          <mxGeometry y="60" width="180" height="32" as="geometry" />
        </mxCell>
        <mxCell id="TfWbrsgbRibgP_C1F9pa-33" value="+GetTotalFileCount&lt;span style=&quot;background-color: initial;&quot;&gt;(string):int&lt;/span&gt;" style="text;strokeColor=none;fillColor=none;align=left;verticalAlign=top;spacingLeft=4;spacingRight=4;overflow=hidden;rotatable=0;points=[[0,0.5],[1,0.5]];portConstraint=eastwest;whiteSpace=wrap;html=1;" vertex="1" parent="TfWbrsgbRibgP_C1F9pa-28">
          <mxGeometry y="92" width="180" height="32" as="geometry" />
        </mxCell>
        <mxCell id="TfWbrsgbRibgP_C1F9pa-34" value="" style="endArrow=open;html=1;rounded=0;endFill=0;" edge="1" parent="1" source="TfWbrsgbRibgP_C1F9pa-28">
          <mxGeometry width="50" height="50" relative="1" as="geometry">
            <mxPoint x="495" y="602" as="sourcePoint" />
            <mxPoint x="430" y="588" as="targetPoint" />
          </mxGeometry>
        </mxCell>
        <mxCell id="TfWbrsgbRibgP_C1F9pa-35" value="0..*" style="text;html=1;strokeColor=none;fillColor=none;align=center;verticalAlign=middle;whiteSpace=wrap;rounded=0;fontStyle=1;fontSize=14;" vertex="1" parent="1">
          <mxGeometry x="390" y="554" width="30" height="30" as="geometry" />
        </mxCell>
        <mxCell id="TfWbrsgbRibgP_C1F9pa-36" value="ManageSaves" style="swimlane;fontStyle=1;align=center;verticalAlign=top;childLayout=stackLayout;horizontal=1;startSize=26;horizontalStack=0;resizeParent=1;resizeParentMax=0;resizeLast=0;collapsible=1;marginBottom=0;whiteSpace=wrap;html=1;" vertex="1" parent="1">
          <mxGeometry x="405" y="-122" width="235" height="164" as="geometry" />
        </mxCell>
        <mxCell id="TfWbrsgbRibgP_C1F9pa-37" value="- logExtension : int" style="text;strokeColor=none;fillColor=none;align=left;verticalAlign=top;spacingLeft=4;spacingRight=4;overflow=hidden;rotatable=0;points=[[0,0.5],[1,0.5]];portConstraint=eastwest;whiteSpace=wrap;html=1;" vertex="1" parent="TfWbrsgbRibgP_C1F9pa-36">
          <mxGeometry y="26" width="235" height="26" as="geometry" />
        </mxCell>
        <mxCell id="TfWbrsgbRibgP_C1F9pa-38" value="" style="line;strokeWidth=1;fillColor=none;align=left;verticalAlign=middle;spacingTop=-1;spacingLeft=3;spacingRight=3;rotatable=0;labelPosition=right;points=[];portConstraint=eastwest;strokeColor=inherit;" vertex="1" parent="TfWbrsgbRibgP_C1F9pa-36">
          <mxGeometry y="52" width="235" height="8" as="geometry" />
        </mxCell>
        <mxCell id="TfWbrsgbRibgP_C1F9pa-39" value="+ addSave(Save)" style="text;strokeColor=none;fillColor=none;align=left;verticalAlign=top;spacingLeft=4;spacingRight=4;overflow=hidden;rotatable=0;points=[[0,0.5],[1,0.5]];portConstraint=eastwest;whiteSpace=wrap;html=1;" vertex="1" parent="TfWbrsgbRibgP_C1F9pa-36">
          <mxGeometry y="60" width="235" height="26" as="geometry" />
        </mxCell>
        <mxCell id="TfWbrsgbRibgP_C1F9pa-40" value="+ RunSaves(int)" style="text;strokeColor=none;fillColor=none;align=left;verticalAlign=top;spacingLeft=4;spacingRight=4;overflow=hidden;rotatable=0;points=[[0,0.5],[1,0.5]];portConstraint=eastwest;whiteSpace=wrap;html=1;" vertex="1" parent="TfWbrsgbRibgP_C1F9pa-36">
          <mxGeometry y="86" width="235" height="26" as="geometry" />
        </mxCell>
        <mxCell id="TfWbrsgbRibgP_C1F9pa-41" value="- IncrementNumberMaxSave():int" style="text;strokeColor=none;fillColor=none;align=left;verticalAlign=top;spacingLeft=4;spacingRight=4;overflow=hidden;rotatable=0;points=[[0,0.5],[1,0.5]];portConstraint=eastwest;whiteSpace=wrap;html=1;" vertex="1" parent="TfWbrsgbRibgP_C1F9pa-36">
          <mxGeometry y="112" width="235" height="26" as="geometry" />
        </mxCell>
        <mxCell id="TfWbrsgbRibgP_C1F9pa-42" value="- GetNumbersToExecute(string):List&amp;lt;int&amp;gt;" style="text;strokeColor=none;fillColor=none;align=left;verticalAlign=top;spacingLeft=4;spacingRight=4;overflow=hidden;rotatable=0;points=[[0,0.5],[1,0.5]];portConstraint=eastwest;whiteSpace=wrap;html=1;" vertex="1" parent="TfWbrsgbRibgP_C1F9pa-36">
          <mxGeometry y="138" width="235" height="26" as="geometry" />
        </mxCell>
        <mxCell id="TfWbrsgbRibgP_C1F9pa-43" value="" style="endArrow=open;html=1;rounded=0;endFill=0;" edge="1" parent="1" source="TfWbrsgbRibgP_C1F9pa-36" target="TfWbrsgbRibgP_C1F9pa-1">
          <mxGeometry width="50" height="50" relative="1" as="geometry">
            <mxPoint x="750" y="288" as="sourcePoint" />
            <mxPoint x="580" y="240" as="targetPoint" />
          </mxGeometry>
        </mxCell>
        <mxCell id="TfWbrsgbRibgP_C1F9pa-44" value="DailyLog" style="swimlane;fontStyle=1;align=center;verticalAlign=top;childLayout=stackLayout;horizontal=1;startSize=26;horizontalStack=0;resizeParent=1;resizeParentMax=0;resizeLast=0;collapsible=1;marginBottom=0;whiteSpace=wrap;html=1;" vertex="1" parent="1">
          <mxGeometry x="-350" y="-240" width="210" height="154" as="geometry" />
        </mxCell>
        <mxCell id="TfWbrsgbRibgP_C1F9pa-45" value="- timeStamp : DataTime&lt;br&gt;- name : String&lt;br&gt;- sourcePath : String&lt;br style=&quot;border-color: var(--border-color);&quot;&gt;- destPath : String&lt;br&gt;- fileSize : long&lt;br&gt;- transfereTime : double" style="text;strokeColor=none;fillColor=none;align=left;verticalAlign=top;spacingLeft=4;spacingRight=4;overflow=hidden;rotatable=0;points=[[0,0.5],[1,0.5]];portConstraint=eastwest;whiteSpace=wrap;html=1;" vertex="1" parent="TfWbrsgbRibgP_C1F9pa-44">
          <mxGeometry y="26" width="210" height="94" as="geometry" />
        </mxCell>
        <mxCell id="TfWbrsgbRibgP_C1F9pa-46" value="" style="line;strokeWidth=1;fillColor=none;align=left;verticalAlign=middle;spacingTop=-1;spacingLeft=3;spacingRight=3;rotatable=0;labelPosition=right;points=[];portConstraint=eastwest;strokeColor=inherit;" vertex="1" parent="TfWbrsgbRibgP_C1F9pa-44">
          <mxGeometry y="120" width="210" height="8" as="geometry" />
        </mxCell>
        <mxCell id="TfWbrsgbRibgP_C1F9pa-47" value="+ DailyLog(Save&lt;span&gt;)&lt;/span&gt;" style="text;strokeColor=none;fillColor=none;align=left;verticalAlign=top;spacingLeft=4;spacingRight=4;overflow=hidden;rotatable=0;points=[[0,0.5],[1,0.5]];portConstraint=eastwest;whiteSpace=wrap;html=1;fontStyle=0" vertex="1" parent="TfWbrsgbRibgP_C1F9pa-44">
          <mxGeometry y="128" width="210" height="26" as="geometry" />
        </mxCell>
        <mxCell id="TfWbrsgbRibgP_C1F9pa-48" value="" style="endArrow=none;html=1;rounded=0;startArrow=open;startFill=0;" edge="1" parent="1" source="TfWbrsgbRibgP_C1F9pa-28" target="TfWbrsgbRibgP_C1F9pa-1">
          <mxGeometry width="50" height="50" relative="1" as="geometry">
            <mxPoint x="260" y="218" as="sourcePoint" />
            <mxPoint x="420" y="218" as="targetPoint" />
          </mxGeometry>
        </mxCell>
        <mxCell id="TfWbrsgbRibgP_C1F9pa-49" value="0..*" style="text;html=1;strokeColor=none;fillColor=none;align=center;verticalAlign=middle;whiteSpace=wrap;rounded=0;fontStyle=1;fontSize=14;" vertex="1" parent="1">
          <mxGeometry x="650" y="430" width="20" height="30" as="geometry" />
        </mxCell>
        <mxCell id="TfWbrsgbRibgP_C1F9pa-50" value="0..*" style="text;html=1;strokeColor=none;fillColor=none;align=center;verticalAlign=middle;whiteSpace=wrap;rounded=0;fontStyle=1;fontSize=14;" vertex="1" parent="1">
          <mxGeometry x="-135" y="-160" width="30" height="30" as="geometry" />
        </mxCell>
        <mxCell id="TfWbrsgbRibgP_C1F9pa-51" value="0..*" style="text;html=1;strokeColor=none;fillColor=none;align=center;verticalAlign=middle;whiteSpace=wrap;rounded=0;fontStyle=1;fontSize=14;" vertex="1" parent="1">
          <mxGeometry x="470" y="51" width="20" height="30" as="geometry" />
        </mxCell>
        <mxCell id="TfWbrsgbRibgP_C1F9pa-52" value="" style="endArrow=open;html=1;rounded=0;endFill=0;" edge="1" parent="1" source="TfWbrsgbRibgP_C1F9pa-24" target="TfWbrsgbRibgP_C1F9pa-21">
          <mxGeometry width="50" height="50" relative="1" as="geometry">
            <mxPoint x="450" y="220" as="sourcePoint" />
            <mxPoint x="500" y="170" as="targetPoint" />
          </mxGeometry>
        </mxCell>
        <mxCell id="TfWbrsgbRibgP_C1F9pa-53" value="" style="endArrow=open;html=1;rounded=0;endFill=0;" edge="1" parent="1" source="TfWbrsgbRibgP_C1F9pa-24" target="TfWbrsgbRibgP_C1F9pa-36">
          <mxGeometry width="50" height="50" relative="1" as="geometry">
            <mxPoint x="343" y="-106" as="sourcePoint" />
            <mxPoint x="240" y="-80" as="targetPoint" />
          </mxGeometry>
        </mxCell>
        <mxCell id="TfWbrsgbRibgP_C1F9pa-54" value="" style="endArrow=block;html=1;rounded=0;endFill=0;" edge="1" parent="1" source="TfWbrsgbRibgP_C1F9pa-11" target="TfWbrsgbRibgP_C1F9pa-1">
          <mxGeometry width="50" height="50" relative="1" as="geometry">
            <mxPoint x="540" y="230" as="sourcePoint" />
            <mxPoint x="590" y="180" as="targetPoint" />
          </mxGeometry>
        </mxCell>
        <mxCell id="TfWbrsgbRibgP_C1F9pa-55" value="" style="endArrow=block;html=1;rounded=0;endFill=0;" edge="1" parent="1" source="TfWbrsgbRibgP_C1F9pa-15" target="TfWbrsgbRibgP_C1F9pa-1">
          <mxGeometry width="50" height="50" relative="1" as="geometry">
            <mxPoint x="650" y="197" as="sourcePoint" />
            <mxPoint x="570" y="213" as="targetPoint" />
          </mxGeometry>
        </mxCell>
        <mxCell id="TfWbrsgbRibgP_C1F9pa-56" value="1" style="text;html=1;strokeColor=none;fillColor=none;align=center;verticalAlign=middle;whiteSpace=wrap;rounded=0;fontStyle=1;fontSize=14;" vertex="1" parent="1">
          <mxGeometry x="507.5" y="-150" width="30" height="30" as="geometry" />
        </mxCell>
        <mxCell id="TfWbrsgbRibgP_C1F9pa-57" value="1" style="text;html=1;strokeColor=none;fillColor=none;align=center;verticalAlign=middle;whiteSpace=wrap;rounded=0;fontStyle=1;fontSize=14;" vertex="1" parent="1">
          <mxGeometry x="720" y="-160" width="30" height="30" as="geometry" />
        </mxCell>
        <mxCell id="TfWbrsgbRibgP_C1F9pa-58" value="PrincipalView (View)" style="swimlane;fontStyle=1;align=center;verticalAlign=top;childLayout=stackLayout;horizontal=1;startSize=26;horizontalStack=0;resizeParent=1;resizeParentMax=0;resizeLast=0;collapsible=1;marginBottom=0;whiteSpace=wrap;html=1;" vertex="1" parent="1">
          <mxGeometry x="750" y="-280" width="160" height="86" as="geometry" />
        </mxCell>
        <mxCell id="TfWbrsgbRibgP_C1F9pa-59" value="- lang : string" style="text;strokeColor=none;fillColor=none;align=left;verticalAlign=top;spacingLeft=4;spacingRight=4;overflow=hidden;rotatable=0;points=[[0,0.5],[1,0.5]];portConstraint=eastwest;whiteSpace=wrap;html=1;" vertex="1" parent="TfWbrsgbRibgP_C1F9pa-58">
          <mxGeometry y="26" width="160" height="26" as="geometry" />
        </mxCell>
        <mxCell id="TfWbrsgbRibgP_C1F9pa-60" value="" style="line;strokeWidth=1;fillColor=none;align=left;verticalAlign=middle;spacingTop=-1;spacingLeft=3;spacingRight=3;rotatable=0;labelPosition=right;points=[];portConstraint=eastwest;strokeColor=inherit;" vertex="1" parent="TfWbrsgbRibgP_C1F9pa-58">
          <mxGeometry y="52" width="160" height="8" as="geometry" />
        </mxCell>
        <mxCell id="TfWbrsgbRibgP_C1F9pa-61" value="+ update(string)" style="text;strokeColor=none;fillColor=none;align=left;verticalAlign=top;spacingLeft=4;spacingRight=4;overflow=hidden;rotatable=0;points=[[0,0.5],[1,0.5]];portConstraint=eastwest;whiteSpace=wrap;html=1;" vertex="1" parent="TfWbrsgbRibgP_C1F9pa-58">
          <mxGeometry y="60" width="160" height="26" as="geometry" />
        </mxCell>
        <mxCell id="TfWbrsgbRibgP_C1F9pa-62" value="" style="endArrow=open;html=1;rounded=0;endFill=0;" edge="1" parent="1" source="TfWbrsgbRibgP_C1F9pa-24" target="TfWbrsgbRibgP_C1F9pa-58">
          <mxGeometry width="50" height="50" relative="1" as="geometry">
            <mxPoint x="330" y="-85" as="sourcePoint" />
            <mxPoint x="240" y="-72" as="targetPoint" />
          </mxGeometry>
        </mxCell>
        <mxCell id="TfWbrsgbRibgP_C1F9pa-63" value="1" style="text;html=1;strokeColor=none;fillColor=none;align=center;verticalAlign=middle;whiteSpace=wrap;rounded=0;fontStyle=1;fontSize=14;" vertex="1" parent="1">
          <mxGeometry x="720" y="-240" width="30" height="30" as="geometry" />
        </mxCell>
        <mxCell id="TfWbrsgbRibgP_C1F9pa-64" value="" style="endArrow=open;html=1;rounded=0;endFill=0;" edge="1" parent="1" source="TfWbrsgbRibgP_C1F9pa-58" target="TfWbrsgbRibgP_C1F9pa-21">
          <mxGeometry width="50" height="50" relative="1" as="geometry">
            <mxPoint x="1010" y="-205" as="sourcePoint" />
            <mxPoint x="920" y="-217" as="targetPoint" />
          </mxGeometry>
        </mxCell>
        <mxCell id="TfWbrsgbRibgP_C1F9pa-65" value="1" style="text;html=1;strokeColor=none;fillColor=none;align=center;verticalAlign=middle;whiteSpace=wrap;rounded=0;fontStyle=1;fontSize=14;" vertex="1" parent="1">
          <mxGeometry x="830" y="-180" width="30" height="30" as="geometry" />
        </mxCell>
        <mxCell id="TfWbrsgbRibgP_C1F9pa-66" value="1" style="text;html=1;strokeColor=none;fillColor=none;align=center;verticalAlign=middle;whiteSpace=wrap;rounded=0;fontStyle=1;fontSize=14;" vertex="1" parent="1">
          <mxGeometry x="545" y="414" width="20" height="30" as="geometry" />
        </mxCell>
        <mxCell id="TfWbrsgbRibgP_C1F9pa-67" value="FileDailyLogs" style="swimlane;fontStyle=1;align=center;verticalAlign=top;childLayout=stackLayout;horizontal=1;startSize=26;horizontalStack=0;resizeParent=1;resizeParentMax=0;resizeLast=0;collapsible=1;marginBottom=0;whiteSpace=wrap;html=1;" vertex="1" parent="1">
          <mxGeometry x="45" y="-180" width="210" height="34" as="geometry" />
        </mxCell>
        <mxCell id="TfWbrsgbRibgP_C1F9pa-68" value="" style="line;strokeWidth=1;fillColor=none;align=left;verticalAlign=middle;spacingTop=-1;spacingLeft=3;spacingRight=3;rotatable=0;labelPosition=right;points=[];portConstraint=eastwest;strokeColor=inherit;" vertex="1" parent="TfWbrsgbRibgP_C1F9pa-67">
          <mxGeometry y="26" width="210" height="8" as="geometry" />
        </mxCell>
        <mxCell id="TfWbrsgbRibgP_C1F9pa-69" value="" style="endArrow=open;html=1;rounded=0;endFill=0;" edge="1" parent="1" source="TfWbrsgbRibgP_C1F9pa-67" target="TfWbrsgbRibgP_C1F9pa-44">
          <mxGeometry width="50" height="50" relative="1" as="geometry">
            <mxPoint x="260" y="283" as="sourcePoint" />
            <mxPoint x="415" y="236" as="targetPoint" />
          </mxGeometry>
        </mxCell>
        <mxCell id="TfWbrsgbRibgP_C1F9pa-70" value="" style="endArrow=open;html=1;rounded=0;endFill=0;" edge="1" parent="1" source="TfWbrsgbRibgP_C1F9pa-36" target="TfWbrsgbRibgP_C1F9pa-67">
          <mxGeometry width="50" height="50" relative="1" as="geometry">
            <mxPoint x="527" y="-74" as="sourcePoint" />
            <mxPoint x="503" y="-18" as="targetPoint" />
          </mxGeometry>
        </mxCell>
        <mxCell id="TfWbrsgbRibgP_C1F9pa-71" value="1" style="text;html=1;strokeColor=none;fillColor=none;align=center;verticalAlign=middle;whiteSpace=wrap;rounded=0;fontStyle=1;fontSize=14;" vertex="1" parent="1">
          <mxGeometry x="180" y="-152" width="30" height="30" as="geometry" />
        </mxCell>
        <mxCell id="TfWbrsgbRibgP_C1F9pa-72" value="FileRTLogs" style="swimlane;fontStyle=1;align=center;verticalAlign=top;childLayout=stackLayout;horizontal=1;startSize=26;horizontalStack=0;resizeParent=1;resizeParentMax=0;resizeLast=0;collapsible=1;marginBottom=0;whiteSpace=wrap;html=1;" vertex="1" parent="1">
          <mxGeometry x="45" y="150" width="210" height="34" as="geometry" />
        </mxCell>
        <mxCell id="TfWbrsgbRibgP_C1F9pa-73" value="" style="line;strokeWidth=1;fillColor=none;align=left;verticalAlign=middle;spacingTop=-1;spacingLeft=3;spacingRight=3;rotatable=0;labelPosition=right;points=[];portConstraint=eastwest;strokeColor=inherit;" vertex="1" parent="TfWbrsgbRibgP_C1F9pa-72">
          <mxGeometry y="26" width="210" height="8" as="geometry" />
        </mxCell>
        <mxCell id="TfWbrsgbRibgP_C1F9pa-74" value="RealTimeLog" style="swimlane;fontStyle=1;align=center;verticalAlign=top;childLayout=stackLayout;horizontal=1;startSize=26;horizontalStack=0;resizeParent=1;resizeParentMax=0;resizeLast=0;collapsible=1;marginBottom=0;whiteSpace=wrap;html=1;" vertex="1" parent="1">
          <mxGeometry x="-350" y="81" width="210" height="174" as="geometry" />
        </mxCell>
        <mxCell id="TfWbrsgbRibgP_C1F9pa-75" value="- name : String&lt;br&gt;- saveState : String&lt;br style=&quot;border-color: var(--border-color);&quot;&gt;- totalFile : int&lt;br&gt;- totalSize : long&lt;br&gt;- progress : double&lt;br&gt;- filesLeft : int&lt;br&gt;- sizeLeft : long" style="text;strokeColor=none;fillColor=none;align=left;verticalAlign=top;spacingLeft=4;spacingRight=4;overflow=hidden;rotatable=0;points=[[0,0.5],[1,0.5]];portConstraint=eastwest;whiteSpace=wrap;html=1;" vertex="1" parent="TfWbrsgbRibgP_C1F9pa-74">
          <mxGeometry y="26" width="210" height="114" as="geometry" />
        </mxCell>
        <mxCell id="TfWbrsgbRibgP_C1F9pa-76" value="" style="line;strokeWidth=1;fillColor=none;align=left;verticalAlign=middle;spacingTop=-1;spacingLeft=3;spacingRight=3;rotatable=0;labelPosition=right;points=[];portConstraint=eastwest;strokeColor=inherit;" vertex="1" parent="TfWbrsgbRibgP_C1F9pa-74">
          <mxGeometry y="140" width="210" height="8" as="geometry" />
        </mxCell>
        <mxCell id="TfWbrsgbRibgP_C1F9pa-77" value="+ RealTimeLog(Save&lt;span&gt;)&lt;/span&gt;" style="text;strokeColor=none;fillColor=none;align=left;verticalAlign=top;spacingLeft=4;spacingRight=4;overflow=hidden;rotatable=0;points=[[0,0.5],[1,0.5]];portConstraint=eastwest;whiteSpace=wrap;html=1;fontStyle=0" vertex="1" parent="TfWbrsgbRibgP_C1F9pa-74">
          <mxGeometry y="148" width="210" height="26" as="geometry" />
        </mxCell>
        <mxCell id="TfWbrsgbRibgP_C1F9pa-78" value="" style="edgeStyle=orthogonalEdgeStyle;rounded=0;orthogonalLoop=1;jettySize=auto;html=1;endArrow=none;endFill=0;startArrow=block;startFill=0;" edge="1" parent="1" source="TfWbrsgbRibgP_C1F9pa-79" target="TfWbrsgbRibgP_C1F9pa-72">
          <mxGeometry relative="1" as="geometry" />
        </mxCell>
        <mxCell id="TfWbrsgbRibgP_C1F9pa-79" value="&amp;lt;&amp;lt;Interface&amp;gt;&amp;gt;&lt;br&gt;FileLogs" style="swimlane;fontStyle=1;align=center;verticalAlign=top;childLayout=stackLayout;horizontal=1;startSize=36;horizontalStack=0;resizeParent=1;resizeParentMax=0;resizeLast=0;collapsible=1;marginBottom=0;whiteSpace=wrap;html=1;" vertex="1" parent="1">
          <mxGeometry x="40" y="-67" width="220" height="148" as="geometry" />
        </mxCell>
        <mxCell id="TfWbrsgbRibgP_C1F9pa-80" value="" style="line;strokeWidth=1;fillColor=none;align=left;verticalAlign=middle;spacingTop=-1;spacingLeft=3;spacingRight=3;rotatable=0;labelPosition=right;points=[];portConstraint=eastwest;strokeColor=inherit;" vertex="1" parent="TfWbrsgbRibgP_C1F9pa-79">
          <mxGeometry y="36" width="220" height="8" as="geometry" />
        </mxCell>
        <mxCell id="TfWbrsgbRibgP_C1F9pa-81" value="&lt;i&gt;+ GetFileName():string&lt;/i&gt;" style="text;strokeColor=none;fillColor=none;align=left;verticalAlign=top;spacingLeft=4;spacingRight=4;overflow=hidden;rotatable=0;points=[[0,0.5],[1,0.5]];portConstraint=eastwest;whiteSpace=wrap;html=1;" vertex="1" parent="TfWbrsgbRibgP_C1F9pa-79">
          <mxGeometry y="44" width="220" height="26" as="geometry" />
        </mxCell>
        <mxCell id="TfWbrsgbRibgP_C1F9pa-82" value="&lt;i&gt;+ AddLog(Log)&lt;/i&gt;" style="text;strokeColor=none;fillColor=none;align=left;verticalAlign=top;spacingLeft=4;spacingRight=4;overflow=hidden;rotatable=0;points=[[0,0.5],[1,0.5]];portConstraint=eastwest;whiteSpace=wrap;html=1;" vertex="1" parent="TfWbrsgbRibgP_C1F9pa-79">
          <mxGeometry y="70" width="220" height="26" as="geometry" />
        </mxCell>
        <mxCell id="TfWbrsgbRibgP_C1F9pa-83" value="&lt;i&gt;+ EmptyLogs()&lt;/i&gt;" style="text;strokeColor=none;fillColor=none;align=left;verticalAlign=top;spacingLeft=4;spacingRight=4;overflow=hidden;rotatable=0;points=[[0,0.5],[1,0.5]];portConstraint=eastwest;whiteSpace=wrap;html=1;" vertex="1" parent="TfWbrsgbRibgP_C1F9pa-79">
          <mxGeometry y="96" width="220" height="26" as="geometry" />
        </mxCell>
        <mxCell id="TfWbrsgbRibgP_C1F9pa-84" value="&lt;i&gt;+ IsEmpty():bool&lt;/i&gt;" style="text;strokeColor=none;fillColor=none;align=left;verticalAlign=top;spacingLeft=4;spacingRight=4;overflow=hidden;rotatable=0;points=[[0,0.5],[1,0.5]];portConstraint=eastwest;whiteSpace=wrap;html=1;" vertex="1" parent="TfWbrsgbRibgP_C1F9pa-79">
          <mxGeometry y="122" width="220" height="26" as="geometry" />
        </mxCell>
        <mxCell id="TfWbrsgbRibgP_C1F9pa-85" value="" style="edgeStyle=orthogonalEdgeStyle;rounded=0;orthogonalLoop=1;jettySize=auto;html=1;endArrow=none;endFill=0;startArrow=block;startFill=0;" edge="1" parent="1" source="TfWbrsgbRibgP_C1F9pa-79" target="TfWbrsgbRibgP_C1F9pa-67">
          <mxGeometry relative="1" as="geometry">
            <mxPoint x="50" y="62" as="sourcePoint" />
            <mxPoint x="-75" y="140" as="targetPoint" />
          </mxGeometry>
        </mxCell>
        <mxCell id="TfWbrsgbRibgP_C1F9pa-86" value="" style="endArrow=open;html=1;rounded=0;endFill=0;" edge="1" parent="1" source="TfWbrsgbRibgP_C1F9pa-72" target="TfWbrsgbRibgP_C1F9pa-74">
          <mxGeometry width="50" height="50" relative="1" as="geometry">
            <mxPoint x="195" y="226" as="sourcePoint" />
            <mxPoint x="195" y="262" as="targetPoint" />
          </mxGeometry>
        </mxCell>
        <mxCell id="TfWbrsgbRibgP_C1F9pa-87" value="0..*" style="text;html=1;strokeColor=none;fillColor=none;align=center;verticalAlign=middle;whiteSpace=wrap;rounded=0;fontStyle=1;fontSize=14;" vertex="1" parent="1">
          <mxGeometry x="-135" y="170" width="30" height="30" as="geometry" />
        </mxCell>
        <mxCell id="TfWbrsgbRibgP_C1F9pa-88" value="XMLLogs" style="swimlane;fontStyle=1;align=center;verticalAlign=top;childLayout=stackLayout;horizontal=1;startSize=26;horizontalStack=0;resizeParent=1;resizeParentMax=0;resizeLast=0;collapsible=1;marginBottom=0;whiteSpace=wrap;html=1;" vertex="1" parent="1">
          <mxGeometry y="-500" width="210" height="86" as="geometry" />
        </mxCell>
        <mxCell id="TfWbrsgbRibgP_C1F9pa-89" value="" style="line;strokeWidth=1;fillColor=none;align=left;verticalAlign=middle;spacingTop=-1;spacingLeft=3;spacingRight=3;rotatable=0;labelPosition=right;points=[];portConstraint=eastwest;strokeColor=inherit;" vertex="1" parent="TfWbrsgbRibgP_C1F9pa-88">
          <mxGeometry y="26" width="210" height="8" as="geometry" />
        </mxCell>
        <mxCell id="TfWbrsgbRibgP_C1F9pa-90" value="+ RunLogs(FileLogs&lt;span&gt;)&lt;/span&gt;" style="text;strokeColor=none;fillColor=none;align=left;verticalAlign=top;spacingLeft=4;spacingRight=4;overflow=hidden;rotatable=0;points=[[0,0.5],[1,0.5]];portConstraint=eastwest;whiteSpace=wrap;html=1;fontStyle=0" vertex="1" parent="TfWbrsgbRibgP_C1F9pa-88">
          <mxGeometry y="34" width="210" height="26" as="geometry" />
        </mxCell>
        <mxCell id="TfWbrsgbRibgP_C1F9pa-91" value="&lt;span&gt;+ GetExtensionFile():string&lt;/span&gt;" style="text;strokeColor=none;fillColor=none;align=left;verticalAlign=top;spacingLeft=4;spacingRight=4;overflow=hidden;rotatable=0;points=[[0,0.5],[1,0.5]];portConstraint=eastwest;whiteSpace=wrap;html=1;fontStyle=0" vertex="1" parent="TfWbrsgbRibgP_C1F9pa-88">
          <mxGeometry y="60" width="210" height="26" as="geometry" />
        </mxCell>
        <mxCell id="TfWbrsgbRibgP_C1F9pa-92" value="&amp;lt;&amp;lt;Abstract&amp;gt;&amp;gt;&lt;br&gt;TypeFileLogs" style="swimlane;fontStyle=1;align=center;verticalAlign=top;childLayout=stackLayout;horizontal=1;startSize=44;horizontalStack=0;resizeParent=1;resizeParentMax=0;resizeLast=0;collapsible=1;marginBottom=0;whiteSpace=wrap;html=1;" vertex="1" parent="1">
          <mxGeometry x="-130" y="-350" width="210" height="130" as="geometry" />
        </mxCell>
        <mxCell id="TfWbrsgbRibgP_C1F9pa-93" value="" style="line;strokeWidth=1;fillColor=none;align=left;verticalAlign=middle;spacingTop=-1;spacingLeft=3;spacingRight=3;rotatable=0;labelPosition=right;points=[];portConstraint=eastwest;strokeColor=inherit;" vertex="1" parent="TfWbrsgbRibgP_C1F9pa-92">
          <mxGeometry y="44" width="210" height="8" as="geometry" />
        </mxCell>
        <mxCell id="TfWbrsgbRibgP_C1F9pa-94" value="&lt;span&gt;+ GetLogFilePath(FileLogs):string&lt;/span&gt;" style="text;strokeColor=none;fillColor=none;align=left;verticalAlign=top;spacingLeft=4;spacingRight=4;overflow=hidden;rotatable=0;points=[[0,0.5],[1,0.5]];portConstraint=eastwest;whiteSpace=wrap;html=1;fontStyle=0" vertex="1" parent="TfWbrsgbRibgP_C1F9pa-92">
          <mxGeometry y="52" width="210" height="26" as="geometry" />
        </mxCell>
        <mxCell id="TfWbrsgbRibgP_C1F9pa-95" value="+ RunLogs(&lt;span style=&quot;&quot;&gt;FileLogs&lt;/span&gt;&lt;span&gt;)&lt;/span&gt;" style="text;strokeColor=none;fillColor=none;align=left;verticalAlign=top;spacingLeft=4;spacingRight=4;overflow=hidden;rotatable=0;points=[[0,0.5],[1,0.5]];portConstraint=eastwest;whiteSpace=wrap;html=1;fontStyle=2" vertex="1" parent="TfWbrsgbRibgP_C1F9pa-92">
          <mxGeometry y="78" width="210" height="26" as="geometry" />
        </mxCell>
        <mxCell id="TfWbrsgbRibgP_C1F9pa-96" value="&lt;span&gt;+ GetExtensionFile():string&lt;/span&gt;" style="text;strokeColor=none;fillColor=none;align=left;verticalAlign=top;spacingLeft=4;spacingRight=4;overflow=hidden;rotatable=0;points=[[0,0.5],[1,0.5]];portConstraint=eastwest;whiteSpace=wrap;html=1;fontStyle=2" vertex="1" parent="TfWbrsgbRibgP_C1F9pa-92">
          <mxGeometry y="104" width="210" height="26" as="geometry" />
        </mxCell>
        <mxCell id="TfWbrsgbRibgP_C1F9pa-97" value="JSONLogs" style="swimlane;fontStyle=1;align=center;verticalAlign=top;childLayout=stackLayout;horizontal=1;startSize=26;horizontalStack=0;resizeParent=1;resizeParentMax=0;resizeLast=0;collapsible=1;marginBottom=0;whiteSpace=wrap;html=1;" vertex="1" parent="1">
          <mxGeometry x="-250" y="-500" width="210" height="86" as="geometry" />
        </mxCell>
        <mxCell id="TfWbrsgbRibgP_C1F9pa-98" value="" style="line;strokeWidth=1;fillColor=none;align=left;verticalAlign=middle;spacingTop=-1;spacingLeft=3;spacingRight=3;rotatable=0;labelPosition=right;points=[];portConstraint=eastwest;strokeColor=inherit;" vertex="1" parent="TfWbrsgbRibgP_C1F9pa-97">
          <mxGeometry y="26" width="210" height="8" as="geometry" />
        </mxCell>
        <mxCell id="TfWbrsgbRibgP_C1F9pa-99" value="+ RunLogs(FileLogs&lt;span&gt;)&lt;/span&gt;" style="text;strokeColor=none;fillColor=none;align=left;verticalAlign=top;spacingLeft=4;spacingRight=4;overflow=hidden;rotatable=0;points=[[0,0.5],[1,0.5]];portConstraint=eastwest;whiteSpace=wrap;html=1;fontStyle=0" vertex="1" parent="TfWbrsgbRibgP_C1F9pa-97">
          <mxGeometry y="34" width="210" height="26" as="geometry" />
        </mxCell>
        <mxCell id="TfWbrsgbRibgP_C1F9pa-100" value="&lt;span&gt;+ GetExtensionFile():string&lt;/span&gt;" style="text;strokeColor=none;fillColor=none;align=left;verticalAlign=top;spacingLeft=4;spacingRight=4;overflow=hidden;rotatable=0;points=[[0,0.5],[1,0.5]];portConstraint=eastwest;whiteSpace=wrap;html=1;fontStyle=0" vertex="1" parent="TfWbrsgbRibgP_C1F9pa-97">
          <mxGeometry y="60" width="210" height="26" as="geometry" />
        </mxCell>
        <mxCell id="TfWbrsgbRibgP_C1F9pa-101" value="" style="edgeStyle=orthogonalEdgeStyle;rounded=0;orthogonalLoop=1;jettySize=auto;html=1;endArrow=none;endFill=0;startArrow=block;startFill=0;" edge="1" parent="1" source="TfWbrsgbRibgP_C1F9pa-92" target="TfWbrsgbRibgP_C1F9pa-88">
          <mxGeometry relative="1" as="geometry">
            <mxPoint x="379" y="-284" as="sourcePoint" />
            <mxPoint x="244" y="-179" as="targetPoint" />
          </mxGeometry>
        </mxCell>
        <mxCell id="TfWbrsgbRibgP_C1F9pa-102" value="" style="edgeStyle=orthogonalEdgeStyle;rounded=0;orthogonalLoop=1;jettySize=auto;html=1;endArrow=none;endFill=0;startArrow=block;startFill=0;" edge="1" parent="1" source="TfWbrsgbRibgP_C1F9pa-92" target="TfWbrsgbRibgP_C1F9pa-97">
          <mxGeometry relative="1" as="geometry">
            <mxPoint x="-136" y="-219" as="sourcePoint" />
            <mxPoint x="-266" y="-169" as="targetPoint" />
          </mxGeometry>
        </mxCell>
        <mxCell id="TfWbrsgbRibgP_C1F9pa-103" value="" style="endArrow=open;html=1;rounded=0;endFill=0;" edge="1" parent="1" source="TfWbrsgbRibgP_C1F9pa-36" target="TfWbrsgbRibgP_C1F9pa-72">
          <mxGeometry width="50" height="50" relative="1" as="geometry">
            <mxPoint x="450" y="30" as="sourcePoint" />
            <mxPoint x="250" y="140" as="targetPoint" />
          </mxGeometry>
        </mxCell>
        <mxCell id="TfWbrsgbRibgP_C1F9pa-104" value="1" style="text;html=1;strokeColor=none;fillColor=none;align=center;verticalAlign=middle;whiteSpace=wrap;rounded=0;fontStyle=1;fontSize=14;" vertex="1" parent="1">
          <mxGeometry x="210" y="120" width="30" height="30" as="geometry" />
        </mxCell>
        <mxCell id="TfWbrsgbRibgP_C1F9pa-105" value="" style="edgeStyle=orthogonalEdgeStyle;rounded=0;orthogonalLoop=1;jettySize=auto;html=1;endArrow=none;endFill=0;startArrow=block;startFill=0;" edge="1" parent="1" source="TfWbrsgbRibgP_C1F9pa-106" target="TfWbrsgbRibgP_C1F9pa-74">
          <mxGeometry relative="1" as="geometry">
            <mxPoint x="-510" y="-36" as="targetPoint" />
          </mxGeometry>
        </mxCell>
        <mxCell id="TfWbrsgbRibgP_C1F9pa-106" value="&amp;lt;&amp;lt;Interface&amp;gt;&amp;gt;&lt;br&gt;Log" style="swimlane;fontStyle=1;align=center;verticalAlign=top;childLayout=stackLayout;horizontal=1;startSize=36;horizontalStack=0;resizeParent=1;resizeParentMax=0;resizeLast=0;collapsible=1;marginBottom=0;whiteSpace=wrap;html=1;" vertex="1" parent="1">
          <mxGeometry x="-620" y="-15" width="220" height="44" as="geometry" />
        </mxCell>
        <mxCell id="TfWbrsgbRibgP_C1F9pa-107" value="" style="line;strokeWidth=1;fillColor=none;align=left;verticalAlign=middle;spacingTop=-1;spacingLeft=3;spacingRight=3;rotatable=0;labelPosition=right;points=[];portConstraint=eastwest;strokeColor=inherit;" vertex="1" parent="TfWbrsgbRibgP_C1F9pa-106">
          <mxGeometry y="36" width="220" height="8" as="geometry" />
        </mxCell>
        <mxCell id="TfWbrsgbRibgP_C1F9pa-108" value="" style="edgeStyle=orthogonalEdgeStyle;rounded=0;orthogonalLoop=1;jettySize=auto;html=1;endArrow=none;endFill=0;startArrow=block;startFill=0;" edge="1" parent="1" source="TfWbrsgbRibgP_C1F9pa-106" target="TfWbrsgbRibgP_C1F9pa-44">
          <mxGeometry relative="1" as="geometry">
            <mxPoint x="-370.57" y="189" as="sourcePoint" />
            <mxPoint x="-240" y="-172" as="targetPoint" />
          </mxGeometry>
        </mxCell>
        <mxCell id="TfWbrsgbRibgP_C1F9pa-109" value="" style="endArrow=diamondThin;html=1;rounded=0;endFill=1;" edge="1" parent="1" source="TfWbrsgbRibgP_C1F9pa-92" target="TfWbrsgbRibgP_C1F9pa-79">
          <mxGeometry width="50" height="50" relative="1" as="geometry">
            <mxPoint x="415" y="26" as="sourcePoint" />
            <mxPoint x="27" y="140" as="targetPoint" />
            <Array as="points">
              <mxPoint x="-25" y="7" />
            </Array>
          </mxGeometry>
        </mxCell>
      </root>
    </mxGraphModel>
  </diagram>
</mxfile>
